<svg width="18" height="18" viewBox="0 0 18 18" fill="none" xmlns="http://www.w3.org/2000/svg">
<path d="M10.5 11.1101V6.88984C10.5 4.53094 10.5 3.35149 9.80603 3.05797C9.11205 2.76445 8.29523 3.59845 6.66174 5.26644C5.8158 6.13024 5.33314 6.32152 4.12953 6.32152C3.07693 6.32152 2.55063 6.32152 2.17256 6.57946C1.38777 7.11491 1.50639 8.1615 1.50639 9C1.50639 9.8385 1.38777 10.885 2.17256 11.4205C2.55063 11.6785 3.07693 11.6785 4.12953 11.6785C5.33314 11.6785 5.8158 11.8698 6.66174 12.7336C8.29523 14.4016 9.11205 15.2356 9.80603 14.942C10.5 14.6485 10.5 13.469 10.5 11.1101Z" stroke="#1F1F1F" stroke-width="1.5" stroke-linecap="round" stroke-linejoin="round"/>
<path d="M12.75 6.75C13.2191 7.36476 13.5 8.14755 13.5 9C13.5 9.85245 13.2191 10.6352 12.75 11.25" stroke="#1F1F1F" stroke-width="1.5" stroke-linecap="round" stroke-linejoin="round"/>
<path d="M15 5.25C15.9381 6.2746 16.5 7.57928 16.5 9C16.5 10.4207 15.9381 11.7254 15 12.75" stroke="#1F1F1F" stroke-width="1.5" stroke-linecap="round" stroke-linejoin="round"/>
</svg>
